<svg width="174" height="24" viewBox="0 0 174 24" fill="none" xmlns="http://www.w3.org/2000/svg">
<path d="M9.40502 14.8964C9.26711 15.2301 9.12002 15.4021 9.06485 15.4021C9.00969 15.4021 8.8626 15.22 8.72469 14.8964L4.90936 6.02734C4.37614 4.78344 3.23613 3.99463 1.98581 3.99463H0L6.39872 17.6471C7.03308 18.9821 8.27421 19.0023 8.97292 19.0023C8.99131 19.0023 9.0005 19.0023 9.01889 19.0023H9.05566C9.8555 19.0023 11.0691 19.0023 11.685 17.6471L18.0837 3.99463H16.1071C14.8568 3.99463 13.7076 4.79355 13.1744 6.03745L9.40502 14.8964Z" fill="white"/>
<path d="M19.628 18.8405H21.2829C21.8989 18.8405 22.3953 18.2944 22.3953 17.6168V5.2183C22.3953 4.54073 21.8989 3.99463 21.2829 3.99463H19.628C19.0121 3.99463 18.5156 4.54073 18.5156 5.2183V17.6168C18.5156 18.2944 19.0121 18.8405 19.628 18.8405Z" fill="white"/>
<path d="M62.9023 16.1201C62.415 16.1201 60.9349 16.1201 60.1166 15.5032C59.1789 14.8257 59.1881 13.6424 59.1973 12.6817V6.70494H62.6357C63.2976 6.70494 63.8308 6.11839 63.8308 5.39025V3.99466H59.1973V1.96196C59.1973 1.20348 58.6365 0.576477 57.9378 0.576477H56.5679C55.8784 0.576477 55.3084 1.19337 55.3084 1.96196V3.99466H52.2837H51.4931H47.6502V1.89116C47.6502 1.16303 47.1169 0.576477 46.455 0.576477H44.9656C44.3037 0.576477 43.7705 1.16303 43.7705 1.89116V3.99466H41.4905V5.31946C41.4905 6.08805 42.0605 6.70494 42.75 6.70494H43.7705V13.9559C43.7705 15.7257 44.2945 16.8887 45.4805 17.7483C46.5745 18.5371 47.834 18.8405 49.9853 18.8405H51.5942C52.0263 18.8405 52.3757 18.4562 52.3757 17.9809V16.1201H51.3644C50.8771 16.1201 49.3969 16.1201 48.5787 15.5032C47.641 14.8257 47.6502 13.6424 47.6594 12.6817V6.70494H51.5298H52.2837H55.3084V13.9559C55.3084 15.7257 55.8324 16.8887 57.0184 17.7483C58.1124 18.5371 59.372 18.8405 61.5233 18.8405H63.1321C63.5642 18.8405 63.9136 18.4562 63.9136 17.9809V16.1201H62.9023Z" fill="white"/>
<path d="M28.6105 14.4717C28.5001 14.0874 28.4082 13.2581 28.399 12.6109H37.9235C38.751 12.6109 39.321 12.4289 39.7715 12.0345C40.4977 11.3974 40.5897 10.5175 40.5897 9.73883C40.5897 8.10052 40.3139 6.07793 38.181 4.89471C36.6089 4.01488 34.5863 3.94409 32.6556 3.94409C31.1111 3.94409 28.2427 3.94409 26.404 5.33968C24.5285 6.76561 24.3906 8.81855 24.3906 11.5592C24.3906 13.5211 24.4826 15.5437 25.6042 16.9595C27.0108 18.6989 28.9966 18.8506 30.7526 18.8506H39.229C39.6887 18.8506 40.0565 18.4461 40.0565 17.9404V16.1302H31.8466C30.4308 16.1201 29.0426 15.9179 28.6105 14.4717ZM28.399 9.92086C28.4266 9.01069 28.445 8.30278 29.1253 7.6151C30.0906 6.64426 31.5616 6.65437 32.5361 6.65437H32.6189C33.6669 6.65437 34.8621 6.70493 35.7723 7.32183C36.0205 7.48363 36.8111 8.11064 36.8111 9.24329C36.8111 9.61747 36.7284 10.0018 36.0848 10.0018H30.964C30.3021 10.022 28.8495 10.1939 28.3898 11.2355V9.92086H28.399Z" fill="white"/>
<path d="M68.9977 14.4717C68.8874 14.0874 68.7954 13.2581 68.7862 12.6109H78.3108C79.1382 12.6109 79.7082 12.4289 80.1587 12.0345C80.885 11.3974 80.9769 10.5175 80.9769 9.73883C80.9769 8.10052 80.7011 6.07793 78.5682 4.89471C76.9961 4.01488 74.9735 3.94409 73.0429 3.94409C71.4983 3.94409 68.6299 3.94409 66.7912 5.33968C64.9157 6.76561 64.7778 8.81855 64.7778 11.5592C64.7778 13.5211 64.8698 15.5437 65.9914 16.9595C67.398 18.6989 69.3838 18.8506 71.1398 18.8506H79.6163C80.0759 18.8506 80.4437 18.4461 80.4437 17.9404V16.1302H72.2338C70.8088 16.1201 69.4298 15.9179 68.9977 14.4717ZM68.7862 9.92086C68.8138 9.01069 68.8322 8.30278 69.5125 7.6151C70.4778 6.64426 71.9488 6.65437 72.9233 6.65437H73.0061C74.0541 6.65437 75.2493 6.70493 76.1595 7.32183C76.4077 7.48363 77.1983 8.11064 77.1983 9.24329C77.1983 9.61747 77.1156 10.0018 76.4721 10.0018H71.3512C70.6893 10.022 69.2367 10.1939 68.777 11.2355V9.92086H68.7862Z" fill="white"/>
<path d="M19.5637 0C18.9845 0 18.5156 0.515762 18.5156 1.15288V1.86079V2.1035V3.94406C18.8466 3.09457 19.6189 2.75073 20.4003 2.66983C20.529 2.65971 20.8416 2.6496 21.1818 2.6496C21.8437 2.6496 22.3861 2.06305 22.3861 1.3248V1.15288C22.3861 0.515762 21.9172 0 21.3381 0H19.5637Z" fill="white"/>
<path d="M86.9896 14.0974V1.7697C86.9896 1.06179 86.4656 0.485352 85.822 0.485352H84.2867C83.6432 0.485352 83.1191 1.06179 83.1191 1.7697V13.9154C83.1191 16.6358 85.1233 18.8404 87.5964 18.8404H90.6579C91.4025 18.8404 92.0001 18.1831 92.0001 17.3639V16.12H88.8375C87.8171 16.12 86.9896 15.2098 86.9896 14.0974Z" fill="white"/>
<path d="M103.868 17.7127C103.472 18.1087 103.028 18.4087 102.536 18.6127C102.056 18.8047 101.642 18.9127 101.294 18.9367C100.946 18.9607 100.604 18.9727 100.268 18.9727C99.932 18.9727 99.566 18.9427 99.17 18.8827V23.3827L98 23.4727V10.4407C98.264 10.3567 98.666 10.2307 99.206 10.0627C99.758 9.89466 100.34 9.81066 100.952 9.81066C101.576 9.81066 102.11 9.86466 102.554 9.97266C103.01 10.0687 103.43 10.2607 103.814 10.5487C104.714 11.2447 105.164 12.3967 105.164 14.0047C105.164 15.6127 104.732 16.8487 103.868 17.7127ZM99.17 17.9647C99.53 18.0487 99.914 18.0907 100.322 18.0907C101.498 18.0907 102.404 17.7427 103.04 17.0467C103.676 16.3507 103.994 15.3727 103.994 14.1127C103.994 12.8527 103.67 11.9527 103.022 11.4127C102.566 11.0407 101.978 10.8547 101.258 10.8547C100.55 10.8547 99.854 10.9567 99.17 11.1607V17.9647Z" fill="white"/>
<path d="M106.788 16.6687C106.572 16.0927 106.464 15.4207 106.464 14.6527C106.464 13.1767 106.878 12.0187 107.706 11.1787C108.534 10.3267 109.572 9.90066 110.82 9.90066C112.776 9.90066 114.06 10.6927 114.672 12.2767C114.9 12.8527 115.014 13.5247 115.014 14.2927C115.014 15.7687 114.6 16.9327 113.772 17.7847C112.944 18.6247 111.906 19.0447 110.658 19.0447C108.702 19.0447 107.412 18.2527 106.788 16.6687ZM107.634 14.5267C107.634 15.6307 107.916 16.4887 108.48 17.1007C109.056 17.7007 109.794 18.0007 110.694 18.0007C111.594 18.0007 112.344 17.6827 112.944 17.0467C113.544 16.3987 113.844 15.5227 113.844 14.4187C113.844 13.3147 113.562 12.4627 112.998 11.8627C112.434 11.2507 111.696 10.9447 110.784 10.9447C109.884 10.9447 109.134 11.2687 108.534 11.9167C107.934 12.5527 107.634 13.4227 107.634 14.5267Z" fill="white"/>
<path d="M121.477 11.1607C121.045 11.0167 120.457 10.9447 119.713 10.9447C118.969 10.9447 118.393 11.0767 117.985 11.3407C117.577 11.6047 117.373 11.9347 117.373 12.3307C117.373 12.7147 117.493 12.9967 117.733 13.1767C117.973 13.3567 118.273 13.5127 118.633 13.6447C118.993 13.7647 119.383 13.8847 119.803 14.0047C120.235 14.1247 120.631 14.2807 120.991 14.4727C121.831 14.9047 122.251 15.5467 122.251 16.3987C122.251 17.2507 121.957 17.9047 121.369 18.3607C120.793 18.8167 119.947 19.0447 118.831 19.0447C118.267 19.0447 117.721 18.9907 117.193 18.8827C116.677 18.7627 116.281 18.6007 116.005 18.3967L116.401 17.4427C116.677 17.6827 117.235 17.8567 118.075 17.9647C118.339 18.0007 118.609 18.0187 118.885 18.0187C119.509 18.0187 120.031 17.8927 120.451 17.6407C120.871 17.3767 121.081 16.9807 121.081 16.4527C121.081 16.0927 120.961 15.8107 120.721 15.6067C120.481 15.4027 120.181 15.2347 119.821 15.1027C119.461 14.9587 119.065 14.8327 118.633 14.7247C118.213 14.6167 117.823 14.4787 117.463 14.3107C117.103 14.1307 116.803 13.9027 116.563 13.6267C116.323 13.3387 116.203 12.9547 116.203 12.4747C116.203 11.6947 116.503 11.0707 117.103 10.6027C117.703 10.1347 118.507 9.90066 119.515 9.90066C119.767 9.90066 120.025 9.91866 120.289 9.95466C120.553 9.97866 120.793 10.0027 121.009 10.0267L121.765 10.1527L121.477 11.1607Z" fill="white"/>
<path d="M127.764 18.6487C127.548 18.8647 127.158 18.9727 126.594 18.9727C125.802 18.9727 125.268 18.7687 124.992 18.3607C124.524 17.9167 124.29 17.3167 124.29 16.5607V11.0167H123.282L123.444 9.97266H124.29V8.19066L125.46 8.08266V9.97266H127.548V11.0167H125.46V16.8487C125.46 17.5447 125.82 17.8927 126.54 17.8927C126.852 17.8927 127.188 17.8207 127.548 17.6767L127.764 18.6487Z" fill="white"/>
<path d="M142.865 14.9121C142.707 16.2656 142.206 17.3115 141.362 18.0498C140.524 18.7822 139.408 19.1484 138.013 19.1484C136.502 19.1484 135.289 18.6064 134.375 17.5225C133.467 16.4385 133.012 14.9883 133.012 13.1719V11.9414C133.012 10.752 133.223 9.70605 133.645 8.80371C134.073 7.90137 134.677 7.20996 135.456 6.72949C136.235 6.24316 137.137 6 138.163 6C139.522 6 140.612 6.38086 141.432 7.14258C142.253 7.89844 142.73 8.94727 142.865 10.2891H141.169C141.022 9.26953 140.703 8.53125 140.211 8.07422C139.724 7.61719 139.042 7.38867 138.163 7.38867C137.085 7.38867 136.238 7.78711 135.623 8.58398C135.013 9.38086 134.709 10.5146 134.709 11.9854V13.2246C134.709 14.6133 134.999 15.7178 135.579 16.5381C136.159 17.3584 136.97 17.7686 138.013 17.7686C138.951 17.7686 139.669 17.5576 140.167 17.1357C140.671 16.708 141.005 15.9668 141.169 14.9121H142.865Z" fill="white"/>
<path d="M149.156 6.17578L153.34 16.6172L157.523 6.17578H159.712V12.5742V18.9727H158.024V13.9893L158.183 8.61035L153.981 18.9727H152.689L148.497 8.63672L148.664 13.9893V18.9727H146.977V6.17578H149.156Z" fill="white"/>
<path d="M168.262 13.2686C166.815 12.8525 165.76 12.3428 165.098 11.7393C164.442 11.1299 164.113 10.3799 164.113 9.48926C164.113 8.48145 164.515 7.64941 165.318 6.99316C166.126 6.33105 167.175 6 168.464 6C169.343 6 170.125 6.16992 170.811 6.50977C171.502 6.84961 172.035 7.31836 172.41 7.91602C172.791 8.51367 172.982 9.16699 172.982 9.87598H171.285C171.285 9.10254 171.039 8.49609 170.547 8.05664C170.055 7.61133 169.361 7.38867 168.464 7.38867C167.632 7.38867 166.982 7.57324 166.513 7.94238C166.05 8.30566 165.819 8.8125 165.819 9.46289C165.819 9.98438 166.038 10.4268 166.478 10.79C166.923 11.1475 167.676 11.4756 168.736 11.7744C169.803 12.0732 170.635 12.4043 171.233 12.7676C171.836 13.125 172.281 13.5439 172.569 14.0244C172.861 14.5049 173.008 15.0703 173.008 15.7207C173.008 16.7578 172.604 17.5898 171.795 18.2168C170.986 18.8379 169.905 19.1484 168.552 19.1484C167.673 19.1484 166.853 18.9814 166.091 18.6475C165.329 18.3076 164.74 17.8447 164.324 17.2588C163.914 16.6729 163.709 16.0078 163.709 15.2637H165.405C165.405 16.0371 165.69 16.6494 166.258 17.1006C166.832 17.5459 167.597 17.7686 168.552 17.7686C169.443 17.7686 170.125 17.5869 170.6 17.2236C171.074 16.8604 171.312 16.3652 171.312 15.7383C171.312 15.1113 171.092 14.6279 170.652 14.2881C170.213 13.9424 169.416 13.6025 168.262 13.2686Z" fill="white"/>
</svg>
